<?xml version="1.0" encoding="utf-8"?>
<!-- Generator: Adobe Illustrator 17.1.0, SVG Export Plug-In . SVG Version: 6.00 Build 0)  -->
<!DOCTYPE svg PUBLIC "-//W3C//DTD SVG 1.1//EN" "http://www.w3.org/Graphics/SVG/1.1/DTD/svg11.dtd">
<svg version="1.1" id="Layer_1" xmlns="http://www.w3.org/2000/svg" xmlns:xlink="http://www.w3.org/1999/xlink" x="0px" y="0px"
	 viewBox="0 0 612 792" enable-background="new 0 0 612 792" xml:space="preserve">
<g>
	<defs>
		<path id="SVGID_1_" d="M287.2,372.8c-19.1,3.4-29.7,10.1-30.1,10.4c-0.8,0.5-1.1,1.7-0.5,2.5c0.5,0.8,1.7,1.1,2.5,0.5
			c0.4-0.3,42-26.3,108.2,0.2c0.2,0.1,0.4,0.1,0.7,0.1c0.7,0,1.4-0.4,1.7-1.1c0.4-0.9-0.1-2-1-2.3c-23.2-9.3-43.4-12.1-59.5-12.1
			C300.6,371,293.2,371.8,287.2,372.8"/>
	</defs>
	<clipPath id="SVGID_2_">
		<use xlink:href="#SVGID_1_"  overflow="visible"/>
	</clipPath>
	<defs>
		<filter id="Adobe_OpacityMaskFilter" filterUnits="userSpaceOnUse" x="256" y="360" width="114" height="26.8">
			<feColorMatrix  type="matrix" values="1 0 0 0 0  0 1 0 0 0  0 0 1 0 0  0 0 0 1 0"/>
		</filter>
	</defs>
	<mask maskUnits="userSpaceOnUse" x="256" y="360" width="114" height="26.8" id="SVGID_3_">
		<g filter="url(#Adobe_OpacityMaskFilter)">
			
				<linearGradient id="SVGID_4_" gradientUnits="userSpaceOnUse" x1="-179.8623" y1="785.0544" x2="-178.8623" y2="785.0544" gradientTransform="matrix(113.4598 0 0 -113.4598 20663.3477 89445.5156)">
				<stop  offset="0" style="stop-color:#FFFFFF"/>
				<stop  offset="8.649550e-03" style="stop-color:#FFFFFF"/>
				<stop  offset="9.935381e-02" style="stop-color:#F9F9F9"/>
				<stop  offset="0.2241" style="stop-color:#E7E7E7"/>
				<stop  offset="0.3685" style="stop-color:#CACACA"/>
				<stop  offset="0.5279" style="stop-color:#A1A1A1"/>
				<stop  offset="0.6994" style="stop-color:#6D6D6D"/>
				<stop  offset="0.8782" style="stop-color:#2F2F2F"/>
				<stop  offset="1" style="stop-color:#000000"/>
			</linearGradient>
			<rect x="256" y="360" clip-path="url(#SVGID_2_)" fill="url(#SVGID_4_)" width="114" height="26.8"/>
		</g>
	</mask>
	
		<linearGradient id="SVGID_5_" gradientUnits="userSpaceOnUse" x1="-179.8623" y1="785.0544" x2="-178.8623" y2="785.0544" gradientTransform="matrix(113.4597 0 0 -113.4597 20663.3457 89445.5078)">
		<stop  offset="0" style="stop-color:#A98860"/>
		<stop  offset="8.649550e-03" style="stop-color:#A98860"/>
		<stop  offset="0.1228" style="stop-color:#AB8B64"/>
		<stop  offset="0.2796" style="stop-color:#B29470"/>
		<stop  offset="0.4612" style="stop-color:#BEA485"/>
		<stop  offset="0.6615" style="stop-color:#D1BDA6"/>
		<stop  offset="0.8744" style="stop-color:#E9E1D6"/>
		<stop  offset="1" style="stop-color:#FFFFFF"/>
	</linearGradient>
	<rect x="256" y="360" clip-path="url(#SVGID_2_)" mask="url(#SVGID_3_)" fill="url(#SVGID_5_)" width="114" height="26.8"/>
</g>
<polygon fill="#414042" points="234.8,427.9 239.1,427.9 239.1,428.4 234.8,428.4 234.8,431.5 239.4,431.5 239.4,432.1 234.2,432.1 
	234.2,424.2 239.3,424.2 239.3,424.8 234.8,424.8 "/>
<polygon fill="#414042" points="245.9,424.3 246.5,424.3 246.5,424.3 244,428.1 246.7,432.1 246.7,432.1 246,432.1 243.6,428.5 
	241.3,432.1 240.6,432.1 240.6,432.1 243.3,428.1 240.8,424.3 240.8,424.3 241.4,424.3 243.6,427.6 "/>
<path fill="#414042" d="M248.6,429.4v2.7H248v-7.9h3.2c3.2,0,3.2,5.1,0,5.1H248.6z M248.6,424.8v4h2.7c2.5,0,2.5-4,0-4H248.6z"/>
<path fill="#414042" d="M261.1,432.1h-0.8l-2.6-3h-2v3h-0.6v-7.9h3.2c1.6,0,2.4,1.2,2.4,2.4c0,1.3-0.8,2.4-2.4,2.4L261.1,432.1z
	 M255.8,428.6h2.6c1.3,0,1.9-0.8,1.9-1.9c0-0.9-0.6-1.9-1.8-1.9h-2.7V428.6z"/>
<polygon fill="#414042" points="262.8,427.9 267.2,427.9 267.2,428.4 262.8,428.4 262.8,431.5 267.5,431.5 267.5,432.1 262.3,432.1 
	262.3,424.2 267.4,424.2 267.4,424.8 262.8,424.8 "/>
<path fill="#414042" d="M273.8,425.8c-0.5-0.9-1.4-1.1-2.2-1.1c-0.9,0-2.2,0.3-2.2,1.6c0,1,1,1.2,2.3,1.5c1.4,0.3,2.9,0.6,2.9,2.3
	c0,1.8-1.7,2.2-2.9,2.2c-1.2,0-2.5-0.5-3-1.7l0.5-0.3c0.5,1,1.6,1.4,2.5,1.4c0.9,0,2.4-0.3,2.4-1.7c0-1.2-1.2-1.4-2.4-1.7
	c-1.4-0.3-2.7-0.6-2.7-2c0-1.7,1.6-2.2,2.8-2.2c1.1,0,2,0.2,2.7,1.3L273.8,425.8z"/>
<path fill="#414042" d="M280.8,425.8c-0.5-0.9-1.4-1.1-2.2-1.1c-0.9,0-2.2,0.3-2.2,1.6c0,1,1,1.2,2.3,1.5c1.4,0.3,2.9,0.6,2.9,2.3
	c0,1.8-1.7,2.2-2.9,2.2c-1.2,0-2.5-0.5-3-1.7l0.5-0.3c0.5,1,1.6,1.4,2.5,1.4c0.9,0,2.4-0.3,2.4-1.7c0-1.2-1.2-1.4-2.4-1.7
	c-1.4-0.3-2.7-0.6-2.7-2c0-1.7,1.6-2.2,2.8-2.2c1.1,0,2,0.2,2.7,1.3L280.8,425.8z"/>
<path fill="#414042" d="M293.4,428.2c0,2.1-1.2,4.1-3.7,4.1c-2.5,0-3.7-2-3.7-4.1c0-2.1,1.2-4,3.7-4
	C292.2,424.1,293.4,426.1,293.4,428.2 M286.5,428.2c0,1.8,1.1,3.5,3.2,3.5c2.1,0,3.2-1.7,3.2-3.5c0-1.8-1.1-3.5-3.2-3.5
	C287.6,424.7,286.5,426.3,286.5,428.2"/>
<polygon fill="#414042" points="295.3,424.2 300.2,430.7 300.2,424.2 300.8,424.2 300.8,432.1 300.6,432.1 295.6,425.6 295.6,432.1 
	295,432.1 295,424.2 "/>
<polygon fill="#414042" points="303.3,424.2 303.3,431.5 307.4,431.5 307.4,432.1 302.7,432.1 302.7,424.2 "/>
<rect x="308.8" y="424.2" fill="#414042" width="0.6" height="7.9"/>
<polygon fill="#414042" points="311.5,424.2 316.5,430.7 316.5,424.2 317,424.2 317,432.1 316.8,432.1 311.8,425.6 311.8,432.1 
	311.2,432.1 311.2,424.2 "/>
<polygon fill="#414042" points="319.5,427.9 323.8,427.9 323.8,428.4 319.5,428.4 319.5,431.5 324.1,431.5 324.1,432.1 318.9,432.1 
	318.9,424.2 324,424.2 324,424.8 319.5,424.8 "/>
<path fill="#414042" d="M329.8,429.4v2.7h-0.6v-7.9h3.2c3.2,0,3.2,5.1,0,5.1H329.8z M329.8,424.8v4h2.7c2.5,0,2.5-4,0-4H329.8z"/>
<path fill="#414042" d="M342.3,432.1h-0.8l-2.6-3h-2v3h-0.6v-7.9h3.2c1.6,0,2.4,1.2,2.4,2.4c0,1.3-0.8,2.4-2.4,2.4L342.3,432.1z
	 M337,428.6h2.6c1.3,0,1.9-0.8,1.9-1.9c0-0.9-0.6-1.9-1.8-1.9H337V428.6z"/>
<rect x="343.5" y="424.2" fill="#414042" width="0.6" height="7.9"/>
<polygon fill="#414042" points="346.2,424.2 351.2,430.7 351.2,424.2 351.8,424.2 351.8,432.1 351.5,432.1 346.6,425.6 346.6,432.1 
	346,432.1 346,424.2 "/>
<polygon fill="#414042" points="355.8,424.8 353.1,424.8 353.1,424.3 359,424.3 359,424.8 356.3,424.8 356.3,432.1 355.8,432.1 "/>
<rect x="360.4" y="424.2" fill="#414042" width="0.6" height="7.9"/>
<polygon fill="#414042" points="363.1,424.2 368,430.7 368,424.2 368.6,424.2 368.6,432.1 368.4,432.1 363.4,425.6 363.4,432.1 
	362.8,432.1 362.8,424.2 "/>
<path fill="#414042" d="M376.3,425.7c-0.6-0.7-1.5-1-2.4-1c-2.2,0-3.3,1.7-3.3,3.5c0,1.9,1.1,3.4,3.3,3.4c0.8,0,1.6-0.3,2.2-0.9
	v-2.2h-2.6V428h3.1v2.9c-0.8,0.8-1.7,1.3-2.8,1.3c-2.5,0-3.8-1.9-3.8-4c0-2.5,1.6-4.1,3.8-4.1c1,0,2,0.4,2.7,1.2L376.3,425.7z"/>
<path fill="#8D9092" d="M216,425.7h-4.4v-17.1c0-5.8,2.8-9.5,9.8-9.5c6.6,0,9.5,3.6,9.5,9.5c0,5.8-2.8,9.5-9.5,9.5
	c-2.3,0-4-0.4-5.4-1.1L216,425.7z M221.3,415.8c3.1,0,5.3-1.5,5.3-6.6v-1.3c0-5.1-2.2-6.6-5.3-6.6c-3.1,0-5.3,1.5-5.3,6.6v1.3
	C215.9,414.3,218.1,415.8,221.3,415.8"/>
<path fill="#8D9092" d="M247,399.1v2c-0.6-0.1-1.3-0.1-1.9-0.1c-3.1-0.1-6.6,1.5-6.6,6.6v10.5h-4.4v-9c0-6.1,4-10,11.2-10
	C245.9,399.1,246.5,399.1,247,399.1"/>
<rect x="249.6" y="399" fill="#8D9092" width="4.4" height="19.1"/>
<path fill="#8D9092" d="M268.1,401.5c-3.1,0-5.3,1.5-5.3,6.6v10h-4.4v-8.8c0-6.1,3.4-10,9.5-10c6.8,0,9.4,3.8,9.4,10v8.8h-4.4v-10
	C272.9,403,271.2,401.5,268.1,401.5"/>
<polygon fill="#8D9092" points="291.5,401.2 287.1,401.2 287.1,418.1 282.9,418.1 282.9,401.2 278.4,401.2 278.4,399 282.9,399 
	282.9,389.6 287.1,389.6 287.1,399 291.5,399 "/>
<path fill="#A98860" d="M311,418.1h-4.4v-0.1l0-3.8c-1.7,3.2-3.2,3.9-5.5,3.9c-6.6,0-9.5-3.6-9.5-9.5c0-5.8,2.8-9.5,9.5-9.5
	c7,0,9.7,3.6,9.9,9.5v9.3V418.1z M306.6,407.9c0-5-2.2-6.5-5.3-6.6c-3.1,0-5.3,1.5-5.3,6.6v1.3c0,5.1,2.2,6.6,5.3,6.6
	C304.5,415.8,306.6,413,306.6,407.9L306.6,407.9z"/>
<path fill="#A98860" d="M328.1,399.1v2c-0.6-0.1-1.3-0.1-1.9-0.1c-3.1-0.1-6.6,1.5-6.6,6.6v10.5h-4.4v-9c0-6.1,4-10,11.2-10
	C326.9,399.1,327.5,399.1,328.1,399.1"/>
<path fill="#A98860" d="M346.6,418.3h-4.4v-0.1l0-3.8c-1.7,3.2-3.2,3.9-5.5,3.9c-6.6,0-9.5-3.6-9.5-9.5c0-5.8,2.8-9.5,9.5-9.5
	c7,0,9.7,3.6,9.9,9.5v9.3V418.3z M342.2,408.1c0-5-2.2-6.5-5.3-6.6c-3.2,0-5.3,1.5-5.3,6.6v1.3c0,5.1,2.2,6.6,5.3,6.6
	C340,416,342.2,413.2,342.2,408.1L342.2,408.1z"/>
<path fill="#A98860" d="M349.2,389.7h4.4l0.1,10.6c1.4-0.7,3.1-1.3,5.4-1.3c6.6,0,9.5,3.9,9.5,9.7c0,5.8-2.8,9.5-9.5,9.5
	c-7,0-9.7-3.6-9.9-9.5C349.2,408.5,349.2,398.4,349.2,389.7 M353.6,409.4c0,5,2.2,6.5,5.3,6.6c3.1,0,5.3-1.5,5.3-6.6v-1.3
	c0-5.1-2.2-6.9-5.3-6.8c-3.2,0-5.3,1.8-5.3,6.8V409.4z"/>
<path fill="#A98860" d="M373.6,389.8c1.6,0,2.8,1.3,2.8,2.8c0,1.6-1.5,2.8-2.8,2.8c-1.6,0-2.8-1.3-2.8-2.8
	C370.8,391.1,372,389.8,373.6,389.8 M375.9,418.2h-4.4v-19.1h4.4V418.2z"/>
<path fill="#A98860" d="M398.6,418.3h-4.4v-0.1l0-3.8c-1.7,3.2-3.2,3.9-5.5,3.9c-6.6,0-9.5-3.6-9.5-9.5c0-5.8,2.8-9.5,9.5-9.5
	c7,0,9.7,3.6,9.9,9.5v9.3V418.3z M394.2,408.1c0-5-2.2-6.5-5.3-6.6c-3.2,0-5.3,1.5-5.3,6.6v1.3c0,5.1,2.2,6.6,5.3,6.6
	C392,416,394.2,413.2,394.2,408.1L394.2,408.1z"/>
<path fill="#A98860" d="M253.1,388.6c0.1,0.4,0.6,0.8,1.1,0.8l3,0c0.4,0,0.5,0.2,0.2,0.5l-2.5,1.8c-0.4,0.3-0.5,0.8-0.4,1.3l1,2.9
	c0.1,0.4,0,0.6-0.4,0.3l-2.4-1.8c-0.4-0.3-1-0.3-1.3,0l-2.4,1.8c-0.4,0.3-0.5,0.1-0.4-0.3l0.9-2.9c0.1-0.4,0-1-0.4-1.2l-2.5-1.8
	c-0.4-0.3-0.3-0.5,0.2-0.5l3,0c0.4,0,0.9-0.3,1.1-0.8l0.9-2.9c0.1-0.4,0.4-0.4,0.5,0L253.1,388.6z"/>
<rect x="211.6" y="371" fill="none" width="187" height="61.2"/>
</svg>
